<?xml version="1.0" encoding="UTF-8"?>
<svg xmlns="http://www.w3.org/2000/svg" viewBox="0 0 505 197" width="505" height="197" role="img" aria-label="MC logo">
  <path d="M 5.0 8.0 L 5.0 187.0 L 71.0 187.0 L 75.0 184.0 L 75.0 87.0 L 77.0 76.0 L 81.0 69.0 L 86.0 64.0 L 97.0 60.0 L 105.0 60.0 L 112.0 63.0 L 118.0 69.0 L 122.0 81.0 L 123.0 186.0 L 125.0 187.0 L 190.0 187.0 L 193.0 184.0 L 194.0 83.0 L 196.0 74.0 L 204.0 64.0 L 215.0 60.0 L 223.0 60.0 L 230.0 63.0 L 236.0 69.0 L 240.0 80.0 L 241.0 185.0 L 243.0 187.0 L 310.0 186.0 L 312.0 147.0 L 313.0 149.0 L 316.0 149.0 L 319.0 154.0 L 333.0 169.0 L 344.0 177.0 L 354.0 182.0 L 358.0 182.0 L 368.0 187.0 L 376.0 188.0 L 379.0 191.0 L 429.0 191.0 L 432.0 188.0 L 441.0 187.0 L 449.0 183.0 L 455.0 182.0 L 472.0 173.0 L 490.0 154.0 L 500.0 131.0 L 501.0 120.0 L 498.0 117.0 L 434.0 117.0 L 430.0 120.0 L 427.0 131.0 L 416.0 141.0 L 407.0 144.0 L 400.0 144.0 L 388.0 140.0 L 379.0 129.0 L 374.0 114.0 L 373.0 88.0 L 379.0 66.0 L 391.0 54.0 L 400.0 51.0 L 409.0 51.0 L 416.0 54.0 L 423.0 60.0 L 427.0 66.0 L 428.0 74.0 L 431.0 77.0 L 500.0 76.0 L 500.0 69.0 L 495.0 53.0 L 492.0 49.0 L 490.0 42.0 L 482.0 32.0 L 472.0 23.0 L 460.0 17.0 L 457.0 14.0 L 452.0 13.0 L 446.0 9.0 L 435.0 7.0 L 434.0 5.0 L 383.0 4.0 L 376.0 5.0 L 373.0 8.0 L 365.0 9.0 L 359.0 13.0 L 353.0 14.0 L 343.0 19.0 L 333.0 27.0 L 319.0 42.0 L 312.0 55.0 L 308.0 50.0 L 305.0 43.0 L 305.0 39.0 L 300.0 29.0 L 291.0 18.0 L 276.0 9.0 L 269.0 8.0 L 266.0 5.0 L 261.0 4.0 L 223.0 5.0 L 222.0 7.0 L 213.0 9.0 L 198.0 18.0 L 184.0 33.0 L 181.0 32.0 L 177.0 26.0 L 163.0 13.0 L 155.0 9.0 L 149.0 8.0 L 146.0 5.0 L 109.0 5.0 L 106.0 8.0 L 100.0 9.0 L 90.0 14.0 L 78.0 23.0 L 71.0 31.0 L 69.0 30.0 L 69.0 11.0 L 65.0 8.0 Z" fill="#000000"/>
</svg>
